<svg width="15" height="17" viewBox="0 0 15 17" fill="none" xmlns="http://www.w3.org/2000/svg">
    <path
        d="M12.4071 15.0243C9.65566 16.5569 5.67327 15.696 3.05602 14.7778C1.93435 14.621 1.20183 14.0832 1.22472 13.7583C1.20183 13.3662 1.5452 12.9816 1.70543 12.5932C1.75122 10.3189 2.30061 9.06416 2.81566 7.37246C3.76564 5.12059 5.96319 2.61105 7.98906 0.684082C9.62578 0.997775 11.0908 1.53553 12.1781 2.24134C12.1896 2.7903 11.8233 3.50731 11.4571 4.01146C11.2739 4.22433 10.1752 5.12059 9.8089 5.12059C9.44265 5.12059 9.07639 4.40358 8.99627 3.95545L8.16074 3.52972C7.06197 5.4791 7.97761 7.27163 7.10775 9.5235C9.07639 8.5264 10.0534 8.7793 12.045 9.73158C12.6173 8.95855 13.1052 8.5264 14.2351 8.1838"
        stroke="#006980" stroke-width="1.24999" stroke-linecap="round" stroke-linejoin="round" />
    <path d="M6.08203 12.8042C7.70846 13.8885 9.5156 14.0692 10.9613 12.9849" stroke="#006980"
        stroke-width="1.24999" stroke-linecap="round" />
    <path d="M7.16554 9.36865C6.98483 10.0915 6.44268 10.8144 5.3584 11.3565" stroke="#006980"
        stroke-width="1.24999" stroke-linecap="round" />
    <path d="M12.0447 9.73096C11.5026 10.0924 11.5026 10.8152 11.6833 11.1767" stroke="#006980"
        stroke-width="1.24999" stroke-linecap="round" />
    <path d="M10.0889 3.41256C9.72746 3.05113 9.15337 3.40755 8.97266 3.94969" stroke="#006980"
        stroke-width="1.24999" stroke-linecap="round" />
</svg>
    