<svg width="16" height="21" viewBox="0 0 16 21" fill="none" xmlns="http://www.w3.org/2000/svg">
    <path
        d="M15.8197 13.4051L14.1538 11.6571V9.34152C14.1519 7.7413 13.5846 6.19866 12.5616 5.01189C11.5386 3.82513 10.1326 3.07855 8.61539 2.91652V1.59277H7.38462V2.91652C5.86743 3.07855 4.46139 3.82513 3.43838 5.01189C2.41537 6.19866 1.84806 7.7413 1.84615 9.34152V11.6571L0.180308 13.4051C0.0648927 13.5262 3.48538e-05 13.6904 0 13.8616V15.7988C0 15.9701 0.064835 16.1343 0.180242 16.2554C0.295649 16.3765 0.452174 16.4445 0.615385 16.4445H4.92308V16.9463C4.90969 17.7655 5.18486 18.561 5.69587 19.1805C6.20687 19.8 6.91776 20.1998 7.69231 20.3034C8.12011 20.3479 8.55206 20.298 8.96036 20.1568C9.36867 20.0157 9.7443 19.7864 10.0631 19.4837C10.3819 19.1811 10.6368 18.8118 10.8114 18.3996C10.986 17.9874 11.0764 17.5414 11.0769 17.0903V16.4445H15.3846C15.5478 16.4445 15.7044 16.3765 15.8198 16.2554C15.9352 16.1343 16 15.9701 16 15.7988V13.8616C16 13.6904 15.9351 13.5262 15.8197 13.4051ZM9.84615 17.0903C9.84615 17.604 9.65165 18.0968 9.30543 18.4601C8.95921 18.8233 8.48963 19.0274 8 19.0274C7.51037 19.0274 7.04079 18.8233 6.69457 18.4601C6.34835 18.0968 6.15385 17.604 6.15385 17.0903V16.4445H9.84615V17.0903ZM14.7692 15.1531H1.23077V14.1289L2.89662 12.381C3.01203 12.2599 3.07689 12.0957 3.07692 11.9244V9.34152C3.07692 7.97145 3.5956 6.65751 4.51886 5.68872C5.44211 4.71994 6.69432 4.17569 8 4.17569C9.30568 4.17569 10.5579 4.71994 11.4811 5.68872C12.4044 6.65751 12.9231 7.97145 12.9231 9.34152V11.9244C12.9231 12.0957 12.988 12.2599 13.1034 12.381L14.7692 14.1289V15.1531Z"
        fill="#424243" />
    <ellipse cx="9.9083" cy="2.92356" rx="1.9083" ry="2.24338" fill="#A91F2F" />
</svg>
    