<svg width="15" height="15" viewBox="0 0 15 15" fill="none" xmlns="http://www.w3.org/2000/svg">
    <path fill-rule="evenodd" clip-rule="evenodd"
        d="M7.60449 14.5522C3.7383 14.5522 0.604492 11.4184 0.604492 7.55225C0.604492 3.68606 3.7383 0.552246 7.60449 0.552246C11.4707 0.552246 14.6045 3.68606 14.6045 7.55225C14.6045 11.4184 11.4707 14.5522 7.60449 14.5522ZM7.72699 10.7569C8.17674 11.068 8.74724 11.2531 9.36499 11.2531C9.51855 11.2531 9.67037 11.2417 9.81955 11.2194C9.87074 11.2404 9.92018 11.2662 9.98099 11.3012C10.1122 11.3782 10.2877 11.4963 10.506 11.6556C10.6849 11.7864 10.9382 11.6599 10.9382 11.4399V10.8007C11.0301 10.7412 11.1167 10.6769 11.1986 10.6073C11.6929 10.1882 11.9795 9.61506 11.9795 9.00037C11.9795 8.59568 11.857 8.21725 11.6417 7.89043C11.5739 8.12251 11.4819 8.34685 11.3674 8.55981C11.4129 8.70112 11.437 8.84856 11.437 9.00037C11.437 9.45275 11.2235 9.87975 10.8455 10.2C10.748 10.2824 10.6429 10.3555 10.5318 10.4183C10.4906 10.4416 10.4564 10.4753 10.4325 10.5161C10.4086 10.5569 10.3959 10.6033 10.3957 10.6506V10.9236C10.1363 10.7574 9.95824 10.6791 9.82262 10.6791C9.80737 10.6791 9.79215 10.6804 9.77712 10.683C9.39701 10.7466 9.00735 10.7211 8.63874 10.6086C8.3402 10.6862 8.03513 10.736 7.72743 10.7574L7.72699 10.7569ZM4.46062 9.47856C4.60488 9.60063 4.75751 9.71246 4.91737 9.81325V10.9035C4.91737 11.1791 5.23455 11.3366 5.45812 11.173C6.07499 10.7224 6.50374 10.4677 6.61093 10.4424C6.85855 10.4817 7.11143 10.5014 7.36693 10.5014C9.64193 10.5014 11.5048 8.92337 11.5048 6.94893C11.5048 4.97406 9.64149 3.396 7.36693 3.396C5.09237 3.396 3.22949 4.97406 3.22949 6.9485C3.22949 7.91537 3.68012 8.81706 4.46062 9.47856ZM6.6258 9.76993C6.40574 9.76993 6.08418 9.92525 5.59593 10.2529V9.62425C5.59571 9.56506 5.57981 9.50699 5.54983 9.45596C5.51986 9.40493 5.47689 9.36276 5.4253 9.33375C5.23992 9.22883 5.06474 9.10682 4.90205 8.96931C4.26637 8.43162 3.90762 7.71237 3.90762 6.9485C3.90762 5.36912 5.44587 4.06625 7.36693 4.06625C9.28843 4.06625 10.8262 5.36912 10.8262 6.9485C10.8262 8.52787 9.28843 9.83118 7.36693 9.83118C7.13505 9.83118 6.90624 9.81193 6.68268 9.77431C6.66388 9.77127 6.64485 9.76981 6.6258 9.76993ZM5.60337 7.61918C5.90305 7.61918 6.14587 7.37856 6.14587 7.08281C6.14587 6.78662 5.90305 6.54643 5.60337 6.54643C5.30368 6.54643 5.06087 6.78662 5.06087 7.08281C5.06087 7.379 5.30368 7.61918 5.60337 7.61918ZM7.36693 7.61918C7.66662 7.61918 7.90943 7.37856 7.90943 7.08281C7.90943 6.78662 7.66662 6.54643 7.36693 6.54643C7.06724 6.54643 6.82443 6.78662 6.82443 7.08281C6.82443 7.379 7.06724 7.61918 7.36693 7.61918ZM9.13049 7.61918C9.43018 7.61918 9.67299 7.37856 9.67299 7.08281C9.67299 6.78662 9.43018 6.54643 9.13049 6.54643C8.8308 6.54643 8.58799 6.78662 8.58799 7.08281C8.58799 7.379 8.8308 7.61918 9.13049 7.61918Z"
        fill="#4AD79B" />
</svg>
    