<svg width="22" height="21" viewBox="0 0 22 21" fill="none" xmlns="http://www.w3.org/2000/svg">
    <path d="M12.3803 14.6489H9.24609V15.0006H12.3803V14.6489Z" fill="#505050" />
    <path d="M18.0588 14.6489H14.6992V15.0006H18.0588V14.6489Z" fill="#505050" />
    <path d="M21.5377 14.6489H20.2295V15.0006H21.5377V14.6489Z" fill="#505050" />
    <path
        d="M10.4049 7.36012C10.3117 7.37744 10.1795 7.40618 10.027 7.45145C9.74708 7.53391 9.39967 7.67324 9.0957 7.89257C9.23556 8.56295 9.33197 9.46145 9.33144 10.649C9.33162 11.1337 9.31574 11.6662 9.28113 12.251C9.25812 12.6386 9.55843 12.9712 9.95186 12.9939C9.96595 12.9947 9.98014 12.9951 9.99405 12.9951C10.3693 12.9951 10.6837 12.7067 10.7058 12.3328C10.7417 11.7236 10.7586 11.1639 10.7586 10.6491C10.7567 9.251 10.6364 8.18231 10.4372 7.35449C10.4264 7.35634 10.417 7.35783 10.4049 7.36012Z"
        fill="#505050" />
    <path
        d="M2.58819 14.56L3.35123 14.0507L3.88639 13.6934V19.8868C3.88639 20.4872 4.38025 20.9736 4.98908 20.9736C5.59808 20.9736 6.09194 20.4872 6.09194 19.8868V12.9204H6.50535V19.8868C6.50535 20.4872 6.99921 20.9736 7.60804 20.9736C8.21704 20.9736 8.7109 20.4872 8.7109 19.8868V11.2719V9.60687V6.70409C8.76379 6.81098 8.81713 6.93361 8.86975 7.07664C8.92666 7.23223 8.98133 7.41165 9.03208 7.61445C9.54325 7.27847 10.1087 7.14573 10.3711 7.09853C10.2006 6.48327 9.9835 6.0127 9.73902 5.64446C9.44594 5.20624 9.10317 4.92494 8.78645 4.76925C8.48319 4.61849 8.21651 4.58403 8.05552 4.58184C8.04419 4.58122 8.03304 4.58008 8.02153 4.58008H7.76279L8.38339 5.35243L7.17938 4.98656L6.39894 6.10738L6.80352 4.58008H5.79368L6.19826 6.10738L5.41783 4.98656L4.21382 5.35243L4.83442 4.58008H4.57576C4.5672 4.58008 4.55899 4.58105 4.5507 4.5814C4.28597 4.57727 3.69427 4.69207 3.17579 5.2458C2.80002 5.64323 2.46751 6.22816 2.22705 7.0987C2.48981 7.14609 3.05431 7.27891 3.56476 7.61437C3.66269 7.22547 3.77499 6.92808 3.88639 6.70321V9.60678V9.65865L3.45586 9.94601C3.45211 10.0522 3.44944 10.1604 3.44738 10.2702L4.04997 9.86795L5.65053 12.197L2.65964 14.1934L1.05925 11.8646L1.6729 11.455C1.6696 11.349 1.66728 11.245 1.66541 11.1415L0.6875 11.7942L2.58819 14.56Z"
        fill="#505050" />
    <path d="M3.85125 10.7137L3.70508 10.8145L4.68747 12.1983L4.83363 12.0975L3.85125 10.7137Z"
        fill="#505050" />
    <path
        d="M3.45801 11.4561C3.46149 11.5631 3.46577 11.6715 3.47067 11.781L4.06247 12.6162L4.20883 12.5156L3.45801 11.4561Z"
        fill="#505050" />
    <path
        d="M2.60236 12.9958C2.61636 12.9958 2.63063 12.9955 2.6449 12.9946C3.03833 12.9718 3.33864 12.639 3.31554 12.2514C3.28067 11.6669 3.26506 11.1342 3.26506 10.6496C3.26506 9.78698 3.3151 9.07651 3.39662 8.49518C3.42721 8.2755 3.46235 8.07516 3.50071 7.89197C3.03102 7.55291 2.45582 7.40936 2.19154 7.36092C2.17994 7.35881 2.17102 7.35731 2.16068 7.35547C2.09182 7.64213 2.0318 7.95561 1.98301 8.30223C1.98301 8.30249 1.98301 8.30267 1.98292 8.30293H1.98274C1.89096 8.96004 1.83789 9.73353 1.83789 10.6496C1.83789 11.1642 1.85466 11.7241 1.89096 12.3336C1.91308 12.7074 2.22739 12.9958 2.60236 12.9958Z"
        fill="#505050" />
    <path
        d="M16.37 9.17634C16.8177 9.17634 17.136 8.47361 17.2635 8.13525H15.4766C15.604 8.47361 15.9224 9.17634 16.37 9.17634Z"
        fill="#505050" />
    <path
        d="M16.3697 7.834C17.0355 7.834 17.5753 7.30201 17.5753 6.64576C17.5753 5.98951 17.0355 5.45752 16.3697 5.45752C15.7038 5.45752 15.1641 5.98951 15.1641 6.64576C15.1641 7.30201 15.7038 7.834 16.3697 7.834Z"
        fill="#505050" />
    <path
        d="M16.879 11.6909H15.861H14.7634H14.2533C13.956 11.6909 13.6938 11.8845 13.6105 12.1658L12.8513 14.7273C12.7475 15.0772 12.9513 15.4438 13.3064 15.5461C13.6615 15.6482 14.0335 15.4474 14.1371 15.0975L14.7554 13.0112H15.861H16.879H17.9845L18.603 15.0975C18.6883 15.3857 18.9555 15.5727 19.2456 15.5727C19.3077 15.5727 19.3708 15.5641 19.4335 15.5461C19.7887 15.4438 19.9925 15.0773 19.8888 14.7273L19.1296 12.1658C19.0461 11.8845 18.784 11.6909 18.4867 11.6909H17.9767H16.879Z"
        fill="#505050" />
    <path
        d="M14.629 7.36629C14.8406 7.62676 15.0478 7.78298 15.205 7.87568L15.2655 7.91137L15.2768 7.9807C15.3005 8.12622 15.366 8.57542 15.3663 9.10801C15.3666 9.6366 15.3031 10.2675 15.0549 10.7644L14.7707 10.6974V8.94575C14.552 8.83522 14.2781 8.65905 13.9965 8.38137L14.1019 8.27457M14.629 7.36629L11.8319 5.36985C11.8558 5.45046 11.9306 5.50259 12.0117 5.50259C12.0291 5.50259 12.0469 5.50022 12.0646 5.49503L12.1064 5.6391L12.1066 5.63905C12.1067 5.63902 12.1068 5.63899 12.1069 5.63896L12.6709 5.47549C12.8993 6.92855 13.4456 7.84008 13.9967 8.38156L14.1019 8.27457M14.629 7.36629C14.3003 6.96011 13.9479 6.28564 13.7923 5.15041L13.8818 5.12445H14.5162C14.583 5.12445 14.6454 5.10498 14.6978 5.0717L16.3698 5.07162H16.3699H18.0418C18.0943 5.10497 18.1567 5.12445 18.2237 5.12445H18.858L18.9661 5.15582C18.7801 6.50091 18.3206 7.19813 17.9455 7.57081L14.629 7.36629ZM14.1019 8.27457C13.5743 7.75621 13.0385 6.8699 12.8162 5.43339L14.9207 8.85159C14.7039 8.75199 14.4084 8.57688 14.1019 8.27457ZM13.1306 4.46703C12.9302 4.48897 12.7663 4.6101 12.6809 4.77487L11.917 4.99626L11.9169 4.99628C11.7393 5.04786 11.6347 5.23323 11.6881 5.41263L13.147 4.61614M13.1306 4.46703L13.147 4.61614M13.1306 4.46703C13.1306 4.46703 13.1306 4.46703 13.1306 4.46703L13.147 4.61614M13.1306 4.46703C13.2589 4.45297 13.3823 4.48163 13.4859 4.54153M13.147 4.61614C13.264 4.6033 13.3752 4.6382 13.4606 4.70501M13.4859 4.54153L13.4189 4.56094L13.4606 4.70501M13.4859 4.54153L13.7651 4.46064L13.7855 4.45471H13.8068H14.5162C14.5833 4.45471 14.6457 4.47419 14.6981 4.50754M13.4859 4.54153C13.5094 4.55508 13.5318 4.57023 13.553 4.58685L13.4606 4.70501M13.4606 4.70501L14.6981 4.50754M14.6981 4.50754H14.6474V4.65754M14.6981 4.50754L13.8068 4.60471H14.5162C14.5674 4.60471 14.6136 4.62493 14.6474 4.65754M14.6981 4.50754H16.1128V1.81445V1.66445H16.2628H16.4771H16.6271V1.81445V4.50781H18.042C18.0944 4.47444 18.1569 4.45497 18.2238 4.45497H18.9331H18.9544L18.9749 4.4609L19.2674 4.54565C19.3722 4.48327 19.4978 4.45282 19.6289 4.46721M14.6981 4.50754C14.7173 4.51978 14.7352 4.53389 14.7515 4.54959L14.6474 4.65754M14.6474 4.65754H16.1128L20.6328 5.63899M17.8192 10.6976H17.6692V10.3069C17.7089 10.444 17.7582 10.5755 17.8192 10.6976ZM17.8192 10.6976L17.9534 10.6306C17.8997 10.5232 17.8555 10.4071 17.8192 10.2854V10.6976ZM20.6328 5.63899C20.6329 5.63902 20.633 5.63906 20.6332 5.6391C20.6651 5.64849 20.6971 5.65268 20.7281 5.65268C20.8725 5.65268 21.0078 5.55978 21.0518 5.41292L21.0518 5.41288C21.1054 5.2333 21.0003 5.04789 20.8229 4.99637L20.8228 4.99634L20.0826 4.78185M20.6328 5.63899L20.6753 5.49512L20.6328 5.63899ZM20.0826 4.78185C19.9981 4.61327 19.8317 4.48936 19.6289 4.46721M20.0826 4.78185C20.095 4.80669 20.1057 4.83249 20.1145 4.85908L19.972 4.90597L20.0137 4.7619L20.0826 4.78185ZM19.6289 4.46721C19.6289 4.46721 19.6288 4.4672 19.6288 4.4672L19.6125 4.61631L19.6289 4.46721ZM20.0876 5.481L19.9424 5.43891C19.95 5.38961 19.9573 5.33967 19.9642 5.28907L20.0876 5.481ZM20.0876 5.481C20.0954 5.43171 20.1028 5.3818 20.1098 5.33126L20.0876 5.481ZM17.8192 8.86064L17.8806 8.99751C17.9089 8.98482 17.9385 8.97092 17.9692 8.95569V8.86064H17.8192ZM16.2628 1.96445V4.50754L16.4771 4.50781V1.96445V1.81445H16.4128H16.3271H16.2628V1.96445ZM18.0927 4.65781H16.6271L19.2939 4.7095L18.9331 4.60497H18.2238C18.1727 4.60497 18.1265 4.62519 18.0927 4.65781ZM18.6575 8.27465L18.7626 8.38164C18.7627 8.38157 18.7627 8.3815 18.7628 8.38143L18.6575 8.27465Z"
        fill="#505050" stroke="#505050" stroke-width="0.3" />
    <path d="M17.522 13.3809H15.2178V13.8561H17.522V13.3809Z" fill="#505050" />
    <path
        d="M5.97247 4.05289C6.0787 4.07004 6.1876 4.07935 6.29882 4.07935C6.41005 4.07935 6.51895 4.07004 6.62518 4.05289C6.7983 4.02503 6.96402 3.9751 7.11922 3.90644C7.14428 3.89536 7.16925 3.88385 7.19378 3.87172C7.85283 3.54752 8.30566 2.87678 8.30566 2.10144C8.30566 1.00902 7.40731 0.123535 6.29882 0.123535C5.19052 0.123535 4.29199 1.00902 4.29199 2.10144C4.29199 2.87678 4.74491 3.54752 5.40396 3.8718C5.42848 3.88385 5.45346 3.89545 5.47861 3.90653C5.6338 3.9751 5.79935 4.02503 5.97247 4.05289Z"
        fill="#505050" />
</svg>
    