<svg width="13" height="16" viewBox="0 0 13 16" fill="none" xmlns="http://www.w3.org/2000/svg">
    <path
        d="M4.41474 1.83797H4.00328C3.87266 1.83797 3.74857 1.85103 3.63101 1.87715C4.37555 2.73925 4.95342 3.70272 5.36462 4.76754C5.77581 5.83237 5.98167 6.94579 5.98219 8.1078C5.98219 9.27033 5.77634 10.384 5.36462 11.4488C4.9529 12.5137 4.37503 13.4769 3.63101 14.3384C3.74857 14.3646 3.87266 14.3776 4.00328 14.3776H4.41474C6.152 14.3776 7.63142 13.7671 8.85299 12.5461C10.0746 11.325 10.6851 9.84558 10.6846 8.1078C10.6846 6.37053 10.074 4.89111 8.85299 3.66954C7.63194 2.44797 6.15252 1.83744 4.41474 1.83797ZM4.41474 0.270508C5.4989 0.270508 6.51774 0.476367 7.47128 0.888086C8.42482 1.29981 9.25426 1.85808 9.95962 2.56291C10.665 3.26827 11.2235 4.09772 11.6352 5.05125C12.0469 6.00479 12.2525 7.02364 12.252 8.1078C12.252 9.19195 12.0462 10.2108 11.6344 11.1643C11.2227 12.1179 10.6645 12.9473 9.95962 13.6527C9.25426 14.358 8.42482 14.9166 7.47128 15.3283C6.51774 15.74 5.4989 15.9456 4.41474 15.9451C3.72244 15.9451 3.04635 15.8568 2.38645 15.6802C1.72655 15.5036 1.09643 15.2392 0.496094 14.887C1.71087 14.1817 2.66781 13.2282 3.36689 12.0264C4.06598 10.8247 4.41526 9.51851 4.41474 8.1078C4.41474 6.69708 4.06519 5.39087 3.36611 4.18915C2.66702 2.98743 1.71035 2.0339 0.496094 1.32854C1.09695 0.975864 1.72733 0.711486 2.38723 0.535408C3.04713 0.35933 3.72297 0.27103 4.41474 0.270508Z"
        fill="#424243" />
</svg>
    