<svg width="26" height="26" viewBox="0 0 26 27" fill="none" xmlns="http://www.w3.org/2000/svg">
    <path
        d="M19.734 20.8741C19.6979 20.878 19.6622 20.881 19.6256 20.8845C19.6191 20.885 19.6134 20.8858 19.6069 20.8858C19.5277 20.8937 19.4489 20.8989 19.3696 20.9033C19.3348 20.905 19.2991 20.9072 19.2634 20.9085C19.2399 20.9098 19.2159 20.9102 19.1929 20.9111C19.1572 20.9124 19.121 20.9137 19.0845 20.9141H19.0779C19.03 20.9146 18.9813 20.9154 18.9334 20.9154C18.4762 20.9154 18.0187 20.8754 17.5733 20.7948C17.5506 20.7909 17.5284 20.7866 17.5058 20.7818C16.8323 22.6173 15.0673 23.9304 13.001 23.9304C10.9443 23.9304 9.18583 22.6291 8.50534 20.807C8.50229 20.7992 8.49881 20.7909 8.49576 20.7831V20.7822C8.43307 20.6102 8.37908 20.4348 8.33685 20.255C8.32858 20.2228 8.32118 20.1897 8.31421 20.1566C8.27981 20.0007 8.25413 19.8418 8.23541 19.6807C8.23236 19.655 8.23018 19.6294 8.22757 19.6041C8.22235 19.5501 8.21799 19.4957 8.21407 19.4413C8.21233 19.4165 8.21059 19.3912 8.20929 19.3664C8.20537 19.2889 8.20275 19.211 8.20275 19.1326C8.20275 19.0856 8.20406 19.039 8.20537 18.9924C8.20624 18.9689 8.20667 18.9449 8.20798 18.9214C8.20972 18.8849 8.21146 18.8487 8.21364 18.8126C8.21407 18.8078 8.21407 18.803 8.21451 18.7982C8.21495 18.7908 8.21582 18.7839 8.21625 18.7765C8.21886 18.739 8.22235 18.7016 8.22626 18.6641C8.22801 18.6476 8.22931 18.6315 8.23105 18.6149C8.23497 18.5797 8.23933 18.5444 8.24411 18.5091C8.24803 18.4782 8.25239 18.4473 8.25718 18.416C8.26109 18.3885 8.26545 18.3611 8.27024 18.3341C8.27459 18.3089 8.27894 18.2832 8.28373 18.2579C8.28939 18.2266 8.29549 18.1952 8.30202 18.1639C8.30594 18.1439 8.31029 18.1243 8.31464 18.1042C8.32074 18.0768 8.32727 18.0494 8.3338 18.022C8.34817 17.9623 8.36341 17.9031 8.37951 17.8439C8.38213 17.8339 8.38474 17.8234 8.38779 17.8134C8.4039 17.7555 8.42218 17.6985 8.44047 17.6427C8.45005 17.6127 8.46006 17.5835 8.47094 17.5544C8.47617 17.5383 8.48183 17.5222 8.48792 17.5056C8.50229 17.4656 8.51709 17.4251 8.5332 17.3854C8.55062 17.3393 8.56934 17.294 8.58893 17.2492L8.60852 17.203C8.63073 17.153 8.65337 17.1046 8.67731 17.0559C8.68166 17.045 8.68689 17.0337 8.69298 17.0237C8.69429 17.021 8.6956 17.018 8.6969 17.0154C9.16493 16.0667 9.93728 15.2948 10.886 14.8263C10.9547 14.6674 11.0131 14.5046 11.0597 14.3396C11.0862 14.2455 11.1063 14.1659 11.1219 14.0914L11.1232 14.0845C11.1868 13.7958 11.219 13.4984 11.219 13.1993C11.219 12.9002 11.1868 12.6029 11.1232 12.3142L11.1219 12.3073C11.1063 12.2328 11.0862 12.1531 11.0597 12.0565C11.0322 11.9611 11.0013 11.8671 10.9678 11.7783C10.9417 11.7082 10.9147 11.6394 10.8846 11.5715C9.93684 11.1035 9.16536 10.3311 8.6969 9.3833C8.60286 9.34325 8.50752 9.30624 8.41043 9.27228C8.31377 9.23919 8.21451 9.20959 8.11481 9.18346C8.08129 9.17432 8.0482 9.16648 8.01424 9.15865C7.98071 9.15038 7.94632 9.14297 7.91236 9.13601C7.87753 9.12817 7.84227 9.12164 7.80657 9.11511C7.7787 9.11076 7.75127 9.10597 7.72341 9.10161C7.71383 9.09987 7.70382 9.09857 7.69337 9.09726C7.66942 9.09334 7.64461 9.08942 7.61936 9.08681C7.58844 9.08246 7.5571 9.07854 7.52531 9.07506C7.51574 9.07375 7.50572 9.07244 7.49615 9.07201C7.45087 9.06766 7.40472 9.06287 7.35857 9.06025C7.35813 9.05982 7.35813 9.05982 7.35726 9.06025C7.31764 9.05721 7.27802 9.05503 7.2384 9.05372C7.22621 9.05329 7.21446 9.05242 7.20227 9.05242C7.15743 9.05068 7.11345 9.0498 7.06861 9.0498C6.88183 9.0498 6.69593 9.06287 6.51177 9.08725C6.40205 9.10161 6.29408 9.12077 6.18742 9.14428V9.14472C6.65283 10.8327 7.72994 12.2681 9.16406 13.1989C7.72994 14.1302 6.65283 15.5656 6.18742 17.2531V17.2535C6.18437 17.2657 6.18045 17.2788 6.17697 17.291C6.1269 17.4738 6.0851 17.6597 6.05114 17.8478C6.04853 17.8583 6.04723 17.8687 6.04548 17.8796C6.04505 17.8813 6.04505 17.8835 6.04418 17.8853C6.03504 17.9358 6.02676 17.9863 6.01893 18.0376C6.01544 18.0594 6.01327 18.0816 6.01022 18.1034C6.00195 18.1587 5.99455 18.2144 5.98758 18.2701C5.98453 18.2949 5.98018 18.3198 5.97757 18.3446C5.97278 18.3877 5.96886 18.4308 5.96494 18.4739C5.96363 18.4865 5.96233 18.4991 5.96102 18.5118C5.95275 18.6045 5.94709 18.6972 5.9423 18.7904C5.94143 18.8087 5.94099 18.8265 5.94012 18.8448C5.93621 18.9402 5.93359 19.0351 5.93359 19.1304C5.93359 19.1753 5.93446 19.2192 5.9349 19.2641V19.2671C5.93534 19.3011 5.93664 19.3355 5.93795 19.3694C5.93882 19.3921 5.93969 19.4147 5.94056 19.4378C5.941 19.4517 5.94143 19.4657 5.9423 19.4796C5.94274 19.5057 5.94404 19.531 5.94622 19.5562C5.94709 19.5684 5.94753 19.581 5.94883 19.5932C5.94927 19.5989 5.9497 19.6045 5.95014 19.6102C5.95275 19.6463 5.95536 19.6825 5.95841 19.7182C5.95972 19.7338 5.96059 19.75 5.96189 19.7656C5.96189 19.7674 5.96189 19.7695 5.96233 19.7713C5.96494 19.8044 5.96799 19.8366 5.97191 19.8692C5.97234 19.874 5.97321 19.8788 5.97365 19.8836C5.9767 19.9128 5.98018 19.942 5.98366 19.9711V19.9716L5.99411 20.0573C5.99934 20.1009 6.00587 20.1435 6.0124 20.1862C6.04592 20.4139 6.09163 20.6381 6.14736 20.8584C6.92015 23.9226 9.7 26.1978 13.0006 26.1978C16.3015 26.1978 19.081 23.9226 19.8533 20.8584C19.8172 20.8628 19.7806 20.8667 19.7445 20.8706C19.741 20.8732 19.7379 20.8741 19.734 20.8741Z"
        fill="#00D1CF" />
    <path
        d="M6.27427 5.52529C6.30736 5.52224 6.34088 5.51876 6.37397 5.51571C6.37571 5.51527 6.37789 5.51527 6.37963 5.51527C6.44624 5.50961 6.51373 5.50439 6.58121 5.50047C6.58818 5.50003 6.59558 5.49916 6.60341 5.49916C6.63215 5.49742 6.66045 5.49525 6.68962 5.49481C6.7066 5.4935 6.72314 5.49307 6.74012 5.4922C6.76102 5.49089 6.78235 5.49046 6.80368 5.48959C6.84243 5.48828 6.88162 5.48697 6.92036 5.48654H6.9208C6.96956 5.4861 7.01789 5.48523 7.06665 5.48523C7.12368 5.48523 7.18072 5.48567 7.23775 5.48697C7.29478 5.48828 7.35269 5.49002 7.40972 5.49263C7.45195 5.49394 7.49418 5.49655 7.53598 5.49916C7.55427 5.50047 7.57212 5.50091 7.5904 5.50221C7.61304 5.50395 7.63568 5.50526 7.65832 5.50744C7.70099 5.51048 7.74409 5.51397 7.78676 5.51832C7.83682 5.52267 7.88646 5.5279 7.93652 5.53399C7.97266 5.53791 8.00967 5.54227 8.04624 5.54749C8.06844 5.54923 8.09021 5.55185 8.11241 5.55576C8.13897 5.55881 8.16553 5.56273 8.19209 5.56665C8.22518 5.571 8.25739 5.57623 8.29048 5.58145C8.32226 5.58667 8.35317 5.5919 8.38496 5.59756C8.39845 5.5993 8.41282 5.60191 8.42632 5.60453C8.44852 5.60844 8.47116 5.61236 8.49293 5.61672C9.16732 3.78162 10.9328 2.46897 12.9986 2.46897C15.0553 2.46897 16.8138 3.76943 17.4938 5.59146C17.4969 5.59974 17.5003 5.60844 17.503 5.61672C17.5748 5.81046 17.634 6.01073 17.6793 6.21579L17.6858 6.24234L17.6862 6.2467C17.6871 6.25018 17.6876 6.25323 17.6884 6.25671C17.7037 6.32594 17.7167 6.39603 17.7289 6.46656C17.7307 6.47701 17.7328 6.48746 17.7346 6.49791C17.7354 6.50357 17.7363 6.50923 17.7372 6.51489C17.7476 6.58019 17.7563 6.64637 17.7642 6.71255C17.7646 6.71559 17.7651 6.71821 17.7651 6.72125C17.7655 6.72517 17.7664 6.72909 17.7664 6.73301C17.7685 6.75129 17.7703 6.76958 17.772 6.78787C17.7786 6.85404 17.7842 6.92022 17.7881 6.98727C17.7886 6.99423 17.7894 7.0012 17.7894 7.00816C17.7894 7.00947 17.7894 7.01078 17.7894 7.01208C17.7938 7.09655 17.7964 7.18144 17.7964 7.26721C17.7964 7.31859 17.7955 7.36996 17.7938 7.42133C17.7934 7.42699 17.7934 7.43222 17.7934 7.43788C17.7929 7.44746 17.7925 7.45703 17.792 7.46705C17.7907 7.50405 17.7886 7.54106 17.7864 7.57807C17.7851 7.59766 17.7838 7.61725 17.7825 7.63684C17.7799 7.67254 17.7768 7.70781 17.7733 7.74351C17.772 7.75744 17.7707 7.77181 17.7694 7.78574C17.7646 7.82928 17.7594 7.87238 17.7533 7.91548C17.752 7.92419 17.7511 7.9329 17.7498 7.9416C17.7485 7.95118 17.7472 7.95989 17.7455 7.96947C17.7411 7.99864 17.7363 8.02737 17.7315 8.05611C17.7267 8.08571 17.7215 8.11488 17.7163 8.14405C17.6997 8.23461 17.6806 8.32386 17.6588 8.41268C17.6575 8.4179 17.6562 8.42313 17.6549 8.42878L17.6519 8.44054C17.6397 8.48974 17.6266 8.5385 17.6127 8.58683C17.5678 8.74312 17.516 8.89463 17.4572 9.04048C17.4429 9.07792 17.4272 9.11493 17.4111 9.15194L17.3658 9.25556C17.3523 9.28473 17.3384 9.31477 17.3236 9.34307C17.3192 9.35352 17.3144 9.36396 17.3092 9.37354C16.8416 10.3266 16.0671 11.1028 15.1149 11.573C15.047 11.7298 14.9887 11.8939 14.9404 12.0611C14.9142 12.1538 14.8942 12.2335 14.879 12.308L14.8777 12.3149C14.8141 12.6036 14.7819 12.9009 14.7819 13.2C14.7819 13.4991 14.8141 13.7965 14.8777 14.0851L14.879 14.0921C14.8946 14.1666 14.9147 14.2462 14.9412 14.3429C14.9687 14.4361 15.0004 14.5327 15.0344 14.6241L15.0361 14.6307C15.0588 14.6934 15.0849 14.7591 15.1132 14.8266H15.1136C16.0636 15.2955 16.8364 16.0687 17.3044 17.0182C17.3044 17.0182 17.3044 17.0187 17.3049 17.0187C17.338 17.0322 17.371 17.0461 17.4046 17.0587C17.4137 17.0631 17.4229 17.0666 17.4324 17.0705C17.462 17.0822 17.4921 17.0931 17.5225 17.1036C17.6101 17.1358 17.6997 17.1645 17.7899 17.1907C18.1586 17.2956 18.5426 17.3496 18.9305 17.3496C19.2283 17.3496 19.524 17.3178 19.8109 17.2542C19.3459 15.5671 18.2692 14.1309 16.8347 13.2C18.2688 12.2688 19.3459 10.8329 19.8109 9.14584C19.847 9.0161 19.8788 8.88505 19.9066 8.75314L19.9437 8.57202L19.9463 8.55765C19.9489 8.54459 19.9515 8.53153 19.9532 8.51891C19.9537 8.51717 19.9537 8.51499 19.9545 8.51325C19.9637 8.46274 19.972 8.41224 19.9798 8.36087C19.9833 8.3391 19.9855 8.31689 19.9885 8.29513C19.9968 8.2394 20.0042 8.18367 20.0111 8.12794C20.0142 8.10313 20.0185 8.07875 20.0212 8.05349C20.0264 8.00604 20.0307 7.95902 20.0355 7.91156C20.036 7.90939 20.036 7.90677 20.036 7.9046C20.0364 7.89807 20.0368 7.8911 20.0377 7.88457C20.0464 7.78792 20.0529 7.69083 20.0573 7.59331C20.0577 7.58677 20.0577 7.58024 20.0582 7.57371C20.0603 7.52495 20.0616 7.47532 20.0629 7.42656C20.0643 7.37388 20.0647 7.32076 20.0647 7.26765C20.0647 7.22367 20.0643 7.17883 20.0634 7.13486V7.1305C20.0629 7.09785 20.0616 7.0652 20.0603 7.03255C20.0599 7.01382 20.059 6.9951 20.0586 6.97595C20.0577 6.95679 20.0573 6.93763 20.0564 6.91891C20.0555 6.91195 20.056 6.90542 20.0551 6.89802C20.0547 6.87929 20.0534 6.86057 20.0521 6.84229C20.0516 6.8301 20.0508 6.81747 20.0495 6.80528C20.049 6.79962 20.0486 6.79396 20.0481 6.7883C20.0455 6.75217 20.0429 6.71603 20.0399 6.68033C20.0386 6.66466 20.0377 6.64855 20.0364 6.63287C20.0364 6.63113 20.0364 6.62896 20.036 6.62721C20.0333 6.59413 20.0303 6.56191 20.0264 6.52926C20.0259 6.52447 20.0251 6.51924 20.0246 6.51445C20.0216 6.48659 20.0185 6.45872 20.0151 6.4313C20.0151 6.42955 20.0146 6.42825 20.0146 6.42651L20.0042 6.34205C19.9989 6.29851 19.9924 6.25497 19.9859 6.2123C19.9515 5.9846 19.9062 5.76039 19.8505 5.54009C19.0781 2.47594 16.2987 0.200684 12.9977 0.200684C9.69673 0.200684 6.91732 2.47594 6.14453 5.54009C6.17805 5.53617 6.21245 5.53225 6.24641 5.52833C6.25686 5.52659 6.26513 5.52572 6.27427 5.52529Z"
        fill="#00D1CF" />
    <path
        d="M20.6606 6.34712C20.6658 6.38413 20.6697 6.42244 20.6737 6.45988C20.6737 6.46032 20.6737 6.46119 20.6737 6.46119C20.6776 6.49863 20.6815 6.53694 20.6845 6.57482C20.6876 6.61183 20.6911 6.64883 20.6937 6.68584C20.6976 6.7346 20.7006 6.78249 20.7033 6.83126C20.705 6.86696 20.7072 6.90179 20.7085 6.93749C20.7098 6.961 20.7102 6.98494 20.7111 7.00802C20.7124 7.04372 20.7137 7.07985 20.7141 7.11642V7.12295C20.7146 7.17085 20.7155 7.21961 20.7155 7.2675C20.7155 7.72464 20.6754 8.18222 20.5949 8.6276C20.5909 8.65024 20.5866 8.67244 20.5818 8.69508H20.5822C22.4173 9.36948 23.73 11.1336 23.73 13.1999C23.73 15.4939 22.1117 17.4169 19.9566 17.8871C19.6266 17.9598 19.2835 17.9981 18.9322 17.9981C18.475 17.9981 18.0323 17.9341 17.6134 17.814C16.235 17.4191 15.1087 16.4225 14.5388 15.1277C14.4988 15.0372 14.4609 14.9444 14.4274 14.8504C14.3873 14.742 14.3507 14.6314 14.3185 14.5191C14.2911 14.4224 14.2658 14.3244 14.2454 14.2247C14.1727 13.8947 14.1344 13.5517 14.1344 13.2003C14.1344 12.849 14.1727 12.5059 14.2454 12.1759C14.2663 12.0762 14.2915 11.9782 14.3185 11.8816C14.379 11.6722 14.4522 11.4693 14.5388 11.2729C14.5667 11.2094 14.5959 11.1467 14.6272 11.0848C15.0948 10.1357 15.8676 9.36294 16.8167 8.89448C16.8846 8.73688 16.9425 8.57492 16.9904 8.40817V8.40774C17.0953 8.03941 17.1493 7.65541 17.1493 7.26793C17.1493 7.24138 17.1493 7.21482 17.1489 7.18826C17.1484 7.16867 17.1476 7.14864 17.1471 7.12861C17.1458 7.08203 17.1432 7.03588 17.1402 6.98973C17.1371 6.94314 17.1332 6.897 17.1284 6.85085C17.1267 6.83343 17.1254 6.81645 17.1232 6.79904C17.1201 6.7703 17.1162 6.742 17.1123 6.71327C17.1093 6.68845 17.1058 6.66407 17.1014 6.64013C17.1014 6.63838 17.1014 6.63621 17.1006 6.63447C17.1006 6.63403 17.1006 6.63316 17.1001 6.63273C17.0971 6.61009 17.0932 6.58745 17.0892 6.56481C17.0853 6.53999 17.0814 6.51605 17.0762 6.4921C17.0696 6.45727 17.0627 6.422 17.0548 6.38717C15.5955 6.78989 14.3233 7.65106 13.4047 8.80436C13.2606 8.98417 13.126 9.17051 13.0007 9.36382C11.9553 7.75337 10.273 6.59311 8.31343 6.24394C7.90897 6.17123 7.49276 6.13379 7.06783 6.13379C6.70909 6.13379 6.35644 6.16035 6.01206 6.21303C2.61354 6.72241 0 9.66161 0 13.1999C0 16.5009 2.27526 19.2803 5.33941 20.0526C5.33549 20.0196 5.33157 19.9878 5.32852 19.9547C5.32765 19.9521 5.32722 19.949 5.32722 19.9464C5.32722 19.9447 5.32678 19.9421 5.32678 19.9399C5.32678 19.939 5.32678 19.939 5.32678 19.9386C5.32286 19.9011 5.31894 19.8633 5.3159 19.8249C5.31285 19.7879 5.30936 19.7509 5.30675 19.7139C5.30283 19.666 5.29979 19.6173 5.29717 19.5685C5.29543 19.5328 5.29326 19.4971 5.29195 19.4614C5.29064 19.4388 5.29021 19.4161 5.28934 19.3935C5.28803 19.356 5.28673 19.319 5.28629 19.282V19.2768C5.28585 19.2289 5.28498 19.1802 5.28498 19.1323C5.28498 18.6751 5.32504 18.2175 5.40558 17.7722C5.4082 17.7587 5.40994 17.7456 5.41255 17.7325C5.41429 17.7234 5.41647 17.7138 5.41821 17.7047H5.41734C3.58224 17.0303 2.2696 15.2662 2.2696 13.1999C2.2696 10.9059 3.88787 8.98286 6.04297 8.51266C6.37298 8.43996 6.71605 8.40164 7.0674 8.40164C7.52454 8.40164 7.96731 8.46564 8.38614 8.5858C9.86118 9.00768 11.0476 10.1205 11.5722 11.5494C11.6131 11.6578 11.6493 11.7684 11.681 11.8807C11.7085 11.9774 11.7337 12.0753 11.7542 12.175C11.8269 12.505 11.8652 12.8481 11.8652 13.1994C11.8652 13.5508 11.8269 13.8939 11.7542 14.2239C11.7333 14.3236 11.708 14.4215 11.681 14.5182C11.6018 14.7951 11.4982 15.0615 11.3724 15.3149C10.9048 16.264 10.132 17.0368 9.18287 17.5044C9.11539 17.6611 9.05792 17.824 9.00916 17.9912C9.00916 17.9916 9.00916 17.9916 9.00916 17.9925C8.90423 18.3599 8.85025 18.7439 8.85025 19.1318C8.85025 19.4296 8.88203 19.7252 8.9456 20.0121C10.6327 19.5472 12.069 18.4705 12.9998 17.0359C13.1247 17.2293 13.2597 17.416 13.4038 17.5954C14.4531 18.9128 15.9629 19.8485 17.687 20.1558C18.0915 20.2285 18.5077 20.266 18.9326 20.266C19.2913 20.266 19.644 20.2394 19.9884 20.1867C23.3865 19.6756 26 16.7368 26 13.1986C26 9.89889 23.7247 7.11947 20.6606 6.34712Z"
        fill="#00D1CF" />
</svg>
    