<svg width="16" height="16" viewBox="0 0 16 16" fill="none" xmlns="http://www.w3.org/2000/svg">
    <g clip-path="url(#clip0_219_28821)">
        <path
            d="M14.6032 13.9635V12.6987C14.6027 12.1383 14.4162 11.5938 14.0728 11.1509C13.7295 10.7079 13.2487 10.3916 12.7061 10.2515"
            stroke="#805F00" stroke-width="1.89711" stroke-linecap="round" stroke-linejoin="round" />
        <path
            d="M10.8093 13.9636V12.6989C10.8093 12.0281 10.5428 11.3847 10.0684 10.9103C9.59407 10.4359 8.95069 10.1694 8.27983 10.1694H3.22088C2.55002 10.1694 1.90664 10.4359 1.43227 10.9103C0.957904 11.3847 0.691406 12.0281 0.691406 12.6989V13.9636"
            stroke="#805F00" stroke-width="1.89711" stroke-linecap="round" stroke-linejoin="round" />
        <path
            d="M10.1768 2.66309C10.7209 2.8024 11.2031 3.11883 11.5475 3.56251C11.8919 4.00619 12.0788 4.55186 12.0788 5.11351C12.0788 5.67517 11.8919 6.22084 11.5475 6.66452C11.2031 7.10819 10.7209 7.42463 10.1768 7.56394"
            stroke="#805F00" stroke-width="1.89711" stroke-linecap="round" stroke-linejoin="round" />
        <path
            d="M5.7492 7.64C7.14619 7.64 8.27868 6.50752 8.27868 5.11053C8.27868 3.71354 7.14619 2.58105 5.7492 2.58105C4.35221 2.58105 3.21973 3.71354 3.21973 5.11053C3.21973 6.50752 4.35221 7.64 5.7492 7.64Z"
            stroke="#805F00" stroke-width="1.89711" stroke-linecap="round" stroke-linejoin="round" />
    </g>
    <defs>
        <clipPath id="clip0_219_28821">
            <rect width="15.1768" height="15.1768" fill="white"
                transform="translate(0.0585938 0.684082)" />
        </clipPath>
    </defs>
</svg>
    